<?xml version="1.0" encoding="UTF-8" standalone="no"?>
<!-- Created with Inkscape (http://www.inkscape.org/) -->

<svg
   xmlns:dc="http://purl.org/dc/elements/1.1/"
   xmlns:cc="http://creativecommons.org/ns#"
   xmlns:rdf="http://www.w3.org/1999/02/22-rdf-syntax-ns#"
   xmlns:svg="http://www.w3.org/2000/svg"
   xmlns="http://www.w3.org/2000/svg"
   xmlns:sodipodi="http://sodipodi.sourceforge.net/DTD/sodipodi-0.dtd"
   xmlns:inkscape="http://www.inkscape.org/namespaces/inkscape"
   width="158.59254"
   height="100.52404"
   id="svg3187"
   version="1.1"
   inkscape:version="0.48.2 r9819"
   sodipodi:docname="qr_info.svg"
   inkscape:export-filename="C:\Users\paul\Documents\GitHub\Nex-yu-mockups\drawables\qr_info\qr_info_xhdpi.png"
   inkscape:export-xdpi="136.78812"
   inkscape:export-ydpi="136.78812">
  <defs
     id="defs3189" />
  <sodipodi:namedview
     id="base"
     pagecolor="#ffffff"
     bordercolor="#666666"
     borderopacity="1.0"
     inkscape:pageopacity="0.0"
     inkscape:pageshadow="2"
     inkscape:zoom="2.8"
     inkscape:cx="116.42292"
     inkscape:cy="23.601369"
     inkscape:document-units="px"
     inkscape:current-layer="layer1"
     showgrid="false"
     showguides="true"
     inkscape:guide-bbox="true"
     fit-margin-top="1"
     fit-margin-left="1"
     fit-margin-right="1"
     fit-margin-bottom="1"
     inkscape:window-width="1440"
     inkscape:window-height="838"
     inkscape:window-x="-8"
     inkscape:window-y="-8"
     inkscape:window-maximized="1" />
  <metadata
     id="metadata3192">
    <rdf:RDF>
      <cc:Work
         rdf:about="">
        <dc:format>image/svg+xml</dc:format>
        <dc:type
           rdf:resource="http://purl.org/dc/dcmitype/StillImage" />
        <dc:title></dc:title>
      </cc:Work>
    </rdf:RDF>
  </metadata>
  <g
     inkscape:label="Calque 1"
     inkscape:groupmode="layer"
     id="layer1"
     transform="translate(-85.90123,-86.028732)">
    <g
       transform="translate(-296.35889,-420.77313)"
       id="g3125">
      <path
         style="fill:#fefefe"
         d="m 476.21619,569.15205 0,-26.16096 26.16096,0 26.16096,0 0,26.16096 0,26.16096 -26.16096,0 -26.16096,0 0,-26.16096 z m 18.19893,15.92406 0,-7.96203 -7.96203,0 -7.96203,0 0,7.96203 0,7.96204 7.96203,0 7.96203,0 0,-7.96204 z m -13.6492,0 0,-5.68716 5.68717,0 5.68716,0 0,5.68716 0,5.68717 -5.68716,0 -5.68717,0 0,-5.68717 z m 9.09947,0 0,-3.4123 -3.4123,0 -3.4123,0 0,3.4123 0,3.4123 3.4123,0 3.4123,0 0,-3.4123 z m 11.37433,6.8246 0,-1.13743 1.13743,0 1.13743,0 0,-3.4123 0,-3.4123 -2.27486,0 -2.27487,0 0,1.13743 0,1.13744 -1.13743,0 -1.13743,0 0,2.27486 0,2.27487 1.13743,0 1.13743,0 0,1.13743 0,1.13744 1.13743,0 1.13744,0 0,-1.13744 z m -2.27487,-3.4123 0,-2.27486 1.13743,0 1.13744,0 0,2.27486 0,2.27487 -1.13744,0 -1.13743,0 0,-2.27487 z m 15.92406,2.27487 0,-2.27487 1.13744,0 1.13743,0 0,1.13744 0,1.13743 1.13743,0 1.13744,0 0,-1.13743 0,-1.13744 3.4123,0 3.4123,0 0,-1.13743 0,-1.13743 -4.54974,0 -4.54973,0 0,-1.13744 0,-1.13743 1.13743,0 1.13744,0 0,-1.13743 0,-1.13744 -2.27487,0 -2.27487,0 0,-1.13743 0,-1.13743 3.4123,0 3.4123,0 0,-2.27487 0,-2.27486 -1.13743,0 -1.13743,0 0,1.13743 0,1.13743 -3.4123,0 -3.4123,0 0,-2.27486 0,-2.27487 -1.13743,0 -1.13744,0 0,1.13743 0,1.13744 -1.13743,0 -1.13743,0 0,2.27486 0,2.27487 -1.13744,0 -1.13743,0 0,-2.27487 0,-2.27486 -1.13743,0 -1.13744,0 0,-2.27487 0,-2.27487 1.13744,0 1.13743,0 0,-1.13743 0,-1.13743 -2.27487,0 -2.27486,0 0,1.13743 0,1.13743 -1.13744,0 -1.13743,0 0,1.13744 0,1.13743 1.13743,0 1.13744,0 0,3.4123 0,3.4123 2.27486,0 2.27487,0 0,2.27486 0,2.27487 3.4123,0 3.4123,0 0,1.13743 0,1.13744 -1.13743,0 -1.13744,0 0,1.13743 0,1.13743 1.13744,0 1.13743,0 0,1.13744 0,1.13743 -1.13743,0 -1.13744,0 0,1.13743 0,1.13744 2.27487,0 2.27486,0 0,-2.27487 z m -2.27486,-3.4123 0,-1.13743 1.13743,0 1.13743,0 0,1.13743 0,1.13743 -1.13743,0 -1.13743,0 0,-1.13743 z m 0,-4.54973 0,-1.13744 1.13743,0 1.13743,0 0,1.13744 0,1.13743 -1.13743,0 -1.13743,0 0,-1.13743 z m -2.27487,-4.54973 0,-1.13744 1.13744,0 1.13743,0 0,1.13744 0,1.13743 -1.13743,0 -1.13744,0 0,-1.13743 z m 15.92407,13.64919 0,-1.13743 -1.13744,0 -1.13743,0 0,1.13743 0,1.13744 1.13743,0 1.13744,0 0,-1.13744 z m -18.19893,-2.27486 0,-1.13744 -1.13744,0 -1.13743,0 0,1.13744 0,1.13743 1.13743,0 1.13744,0 0,-1.13743 z m 18.19893,-9.09947 0,-3.4123 -1.13744,0 -1.13743,0 0,3.4123 0,3.4123 1.13743,0 1.13744,0 0,-3.4123 z m -27.2984,-4.54973 0,-1.13743 -1.13743,0 -1.13743,0 0,1.13743 0,1.13743 1.13743,0 1.13743,0 0,-1.13743 z m -18.19893,-2.27487 0,-1.13743 2.27487,0 2.27486,0 0,1.13743 0,1.13744 2.27487,0 2.27487,0 0,-1.13744 0,-1.13743 1.13743,0 1.13743,0 0,1.13743 0,1.13744 1.13744,0 1.13743,0 0,-1.13744 0,-1.13743 -1.13743,0 -1.13744,0 0,-1.13743 0,-1.13744 1.13744,0 1.13743,0 0,-1.13743 0,-1.13743 1.13743,0 1.13744,0 0,-1.13744 0,-1.13743 -1.13744,0 -1.13743,0 0,-1.13743 0,-1.13743 -1.13743,0 -1.13744,0 0,1.13743 0,1.13743 1.13744,0 1.13743,0 0,1.13743 0,1.13744 -2.27487,0 -2.27486,0 0,-1.13744 0,-1.13743 -1.13744,0 -1.13743,0 0,2.27487 0,2.27486 -1.13743,0 -1.13744,0 0,-1.13743 0,-1.13743 -2.27486,0 -2.27487,0 0,-1.13744 0,-1.13743 2.27487,0 2.27486,0 0,-1.13743 0,-1.13743 -2.27486,0 -2.27487,0 0,1.13743 0,1.13743 -1.13743,0 -1.13743,0 0,4.54973 0,4.54974 1.13743,0 1.13743,0 0,-1.13744 z m 6.8246,-2.27486 0,-1.13744 1.13743,0 1.13744,0 0,1.13744 0,1.13743 -1.13744,0 -1.13743,0 0,-1.13743 z m 31.84813,0 0,-1.13744 1.13743,0 1.13743,0 0,-1.13743 0,-1.13743 -1.13743,0 -1.13743,0 0,-2.27487 0,-2.27486 -1.13744,0 -1.13743,0 0,2.27486 0,2.27487 1.13743,0 1.13744,0 0,1.13743 0,1.13743 -2.27487,0 -2.27487,0 0,1.13744 0,1.13743 2.27487,0 2.27487,0 0,-1.13743 z m 6.8246,-2.27487 0,-3.4123 -1.13744,0 -1.13743,0 0,3.4123 0,3.4123 1.13743,0 1.13744,0 0,-3.4123 z m -13.6492,0 0,-1.13743 -1.13743,0 -1.13744,0 0,1.13743 0,1.13743 1.13744,0 1.13743,0 0,-1.13743 z m -11.37433,-4.54973 0,-1.13743 1.13743,0 1.13743,0 0,1.13743 0,1.13743 2.27487,0 2.27487,0 0,-3.4123 0,-3.4123 -1.13744,0 -1.13743,0 0,-1.13743 0,-1.13743 1.13743,0 1.13744,0 0,-1.13744 0,-1.13743 -4.54974,0 -4.54973,0 0,-1.13743 0,-1.13744 -1.13743,0 -1.13743,0 0,1.13744 0,1.13743 1.13743,0 1.13743,0 0,1.13743 0,1.13744 -1.13743,0 -1.13743,0 0,3.4123 0,3.4123 1.13743,0 1.13743,0 0,1.13743 0,1.13743 1.13743,0 1.13744,0 0,-1.13743 z m -2.27487,-3.4123 0,-2.27487 1.13743,0 1.13744,0 0,2.27487 0,2.27487 -1.13744,0 -1.13743,0 0,-2.27487 z m 4.54973,0 0,-2.27487 1.13744,0 1.13743,0 0,2.27487 0,2.27487 -1.13743,0 -1.13744,0 0,-2.27487 z m 11.37433,3.4123 0,-1.13743 -2.27486,0 -2.27487,0 0,1.13743 0,1.13743 2.27487,0 2.27486,0 0,-1.13743 z m -20.47379,-11.37433 0,-7.96203 -7.96203,0 -7.96203,0 0,7.96203 0,7.96203 7.96203,0 7.96203,0 0,-7.96203 z m -13.6492,0 0,-5.68717 5.68717,0 5.68716,0 0,5.68717 0,5.68716 -5.68716,0 -5.68717,0 0,-5.68716 z m 9.09947,0 0,-3.4123 -3.4123,0 -3.4123,0 0,3.4123 0,3.4123 3.4123,0 3.4123,0 0,-3.4123 z m 36.39786,0 0,-7.96203 -7.96204,0 -7.96203,0 0,7.96203 0,7.96203 7.96203,0 7.96204,0 0,-7.96203 z m -13.6492,0 0,-5.68717 5.68716,0 5.68717,0 0,5.68717 0,5.68716 -5.68717,0 -5.68716,0 0,-5.68716 z m 9.09946,0 0,-3.4123 -3.4123,0 -3.4123,0 0,3.4123 0,3.4123 3.4123,0 3.4123,0 0,-3.4123 z m -18.19893,-2.27487 0,-1.13743 1.13744,0 1.13743,0 0,-1.13743 0,-1.13744 1.13743,0 1.13744,0 0,-1.13743 0,-1.13743 -1.13744,0 -1.13743,0 0,1.13743 0,1.13743 -1.13743,0 -1.13744,0 0,-1.13743 0,-1.13743 -1.13743,0 -1.13743,0 0,1.13743 0,1.13743 -1.13744,0 -1.13743,0 0,1.13744 0,1.13743 1.13743,0 1.13744,0 0,1.13743 0,1.13743 1.13743,0 1.13743,0 0,-1.13743 z m -2.27486,-2.27486 0,-1.13744 1.13743,0 1.13743,0 0,1.13744 0,1.13743 -1.13743,0 -1.13743,0 0,-1.13743 z"
         id="path3129"
         inkscape:connector-curvature="0" />
      <path
         style="fill:#000000"
         d="m 478.49106,585.07611 0,-7.96203 7.96203,0 7.96203,0 0,7.96203 0,7.96204 -7.96203,0 -7.96203,0 0,-7.96204 z m 13.64919,0 0,-5.68716 -5.68716,0 -5.68717,0 0,5.68716 0,5.68717 5.68717,0 5.68716,0 0,-5.68717 z m -9.09946,0 0,-3.4123 3.4123,0 3.4123,0 0,3.4123 0,3.4123 -3.4123,0 -3.4123,0 0,-3.4123 z m 15.92406,6.8246 0,-1.13743 -1.13743,0 -1.13743,0 0,-2.27487 0,-2.27486 1.13743,0 1.13743,0 0,-1.13744 0,-1.13743 2.27487,0 2.27486,0 0,3.4123 0,3.4123 -1.13743,0 -1.13743,0 0,1.13743 0,1.13744 -1.13744,0 -1.13743,0 0,-1.13744 z m 2.27487,-3.4123 0,-2.27486 -1.13744,0 -1.13743,0 0,2.27486 0,2.27487 1.13743,0 1.13744,0 0,-2.27487 z m 9.09946,3.4123 0,-1.13743 1.13744,0 1.13743,0 0,-1.13743 0,-1.13744 -1.13743,0 -1.13744,0 0,-1.13743 0,-1.13743 1.13744,0 1.13743,0 0,-1.13744 0,-1.13743 -3.4123,0 -3.4123,0 0,-2.27487 0,-2.27486 -2.27487,0 -2.27486,0 0,-3.4123 0,-3.4123 -1.13744,0 -1.13743,0 0,-1.13743 0,-1.13744 1.13743,0 1.13744,0 0,-1.13743 0,-1.13743 2.27486,0 2.27487,0 0,1.13743 0,1.13743 -1.13743,0 -1.13744,0 0,2.27487 0,2.27487 1.13744,0 1.13743,0 0,2.27486 0,2.27487 1.13743,0 1.13744,0 0,-2.27487 0,-2.27486 1.13743,0 1.13743,0 0,-1.13744 0,-1.13743 1.13744,0 1.13743,0 0,2.27487 0,2.27486 3.4123,0 3.4123,0 0,-1.13743 0,-1.13743 1.13743,0 1.13743,0 0,2.27486 0,2.27487 -3.4123,0 -3.4123,0 0,1.13743 0,1.13743 2.27487,0 2.27487,0 0,1.13744 0,1.13743 -1.13744,0 -1.13743,0 0,1.13743 0,1.13744 4.54973,0 4.54974,0 0,1.13743 0,1.13743 -3.4123,0 -3.4123,0 0,1.13744 0,1.13743 -1.13744,0 -1.13743,0 0,-1.13743 0,-1.13744 -1.13743,0 -1.13744,0 0,2.27487 0,2.27487 -2.27486,0 -2.27487,0 0,-1.13744 z m 4.54973,-4.54973 0,-1.13743 -1.13743,0 -1.13743,0 0,1.13743 0,1.13743 1.13743,0 1.13743,0 0,-1.13743 z m 0,-4.54973 0,-1.13744 -1.13743,0 -1.13743,0 0,1.13744 0,1.13743 1.13743,0 1.13743,0 0,-1.13743 z m -2.27486,-4.54973 0,-1.13744 -1.13743,0 -1.13744,0 0,1.13744 0,1.13743 1.13744,0 1.13743,0 0,-1.13743 z m 11.37433,13.64919 0,-1.13743 1.13743,0 1.13744,0 0,1.13743 0,1.13744 -1.13744,0 -1.13743,0 0,-1.13744 z m -18.19893,-2.27486 0,-1.13744 1.13743,0 1.13744,0 0,1.13744 0,1.13743 -1.13744,0 -1.13743,0 0,-1.13743 z m 18.19893,-9.09947 0,-3.4123 1.13743,0 1.13744,0 0,3.4123 0,3.4123 -1.13744,0 -1.13743,0 0,-3.4123 z m -27.29839,-4.54973 0,-1.13743 1.13743,0 1.13743,0 0,1.13743 0,1.13743 -1.13743,0 -1.13743,0 0,-1.13743 z m -18.19893,-5.68717 0,-4.54973 1.13743,0 1.13743,0 0,-1.13743 0,-1.13743 2.27487,0 2.27486,0 0,1.13743 0,1.13743 -2.27486,0 -2.27487,0 0,1.13743 0,1.13744 2.27487,0 2.27486,0 0,1.13743 0,1.13743 1.13744,0 1.13743,0 0,-2.27486 0,-2.27487 1.13743,0 1.13744,0 0,1.13743 0,1.13744 2.27486,0 2.27487,0 0,-1.13744 0,-1.13743 -1.13743,0 -1.13744,0 0,-1.13743 0,-1.13743 1.13744,0 1.13743,0 0,1.13743 0,1.13743 1.13743,0 1.13744,0 0,1.13743 0,1.13744 -1.13744,0 -1.13743,0 0,1.13743 0,1.13743 -1.13743,0 -1.13744,0 0,1.13744 0,1.13743 1.13744,0 1.13743,0 0,1.13743 0,1.13744 -1.13743,0 -1.13744,0 0,-1.13744 0,-1.13743 -1.13743,0 -1.13743,0 0,1.13743 0,1.13744 -2.27487,0 -2.27487,0 0,-1.13744 0,-1.13743 -2.27486,0 -2.27487,0 0,1.13743 0,1.13744 -1.13743,0 -1.13743,0 0,-4.54974 z m 11.37433,1.13744 0,-1.13744 -1.13744,0 -1.13743,0 0,1.13744 0,1.13743 1.13743,0 1.13744,0 0,-1.13743 z m 25.02352,0 0,-1.13744 2.27487,0 2.27487,0 0,-1.13743 0,-1.13743 -1.13744,0 -1.13743,0 0,-2.27487 0,-2.27486 1.13743,0 1.13744,0 0,2.27486 0,2.27487 1.13743,0 1.13743,0 0,1.13743 0,1.13743 -1.13743,0 -1.13743,0 0,1.13744 0,1.13743 -2.27487,0 -2.27487,0 0,-1.13743 z m 9.09947,-2.27487 0,-3.4123 1.13743,0 1.13744,0 0,3.4123 0,3.4123 -1.13744,0 -1.13743,0 0,-3.4123 z m -13.6492,0 0,-1.13743 1.13744,0 1.13743,0 0,1.13743 0,1.13743 -1.13743,0 -1.13744,0 0,-1.13743 z m -11.37433,-4.54973 0,-1.13743 -1.13743,0 -1.13743,0 0,-3.4123 0,-3.4123 1.13743,0 1.13743,0 0,-1.13744 0,-1.13743 -1.13743,0 -1.13743,0 0,-1.13743 0,-1.13744 1.13743,0 1.13743,0 0,1.13744 0,1.13743 4.54973,0 4.54974,0 0,1.13743 0,1.13744 -1.13744,0 -1.13743,0 0,1.13743 0,1.13743 1.13743,0 1.13744,0 0,3.4123 0,3.4123 -2.27487,0 -2.27487,0 0,-1.13743 0,-1.13743 -1.13743,0 -1.13743,0 0,1.13743 0,1.13743 -1.13744,0 -1.13743,0 0,-1.13743 z m 2.27487,-3.4123 0,-2.27487 -1.13744,0 -1.13743,0 0,2.27487 0,2.27487 1.13743,0 1.13744,0 0,-2.27487 z m 4.54973,0 0,-2.27487 -1.13743,0 -1.13744,0 0,2.27487 0,2.27487 1.13744,0 1.13743,0 0,-2.27487 z m 4.54973,3.4123 0,-1.13743 2.27487,0 2.27486,0 0,1.13743 0,1.13743 -2.27486,0 -2.27487,0 0,-1.13743 z m -31.84812,-11.37433 0,-7.96203 7.96203,0 7.96203,0 0,7.96203 0,7.96203 -7.96203,0 -7.96203,0 0,-7.96203 z m 13.64919,0 0,-5.68717 -5.68716,0 -5.68717,0 0,5.68717 0,5.68716 5.68717,0 5.68716,0 0,-5.68716 z m -9.09946,0 0,-3.4123 3.4123,0 3.4123,0 0,3.4123 0,3.4123 -3.4123,0 -3.4123,0 0,-3.4123 z m 27.29839,0 0,-7.96203 7.96203,0 7.96204,0 0,7.96203 0,7.96203 -7.96204,0 -7.96203,0 0,-7.96203 z m 13.6492,0 0,-5.68717 -5.68717,0 -5.68716,0 0,5.68717 0,5.68716 5.68716,0 5.68717,0 0,-5.68716 z m -9.09947,0 0,-3.4123 3.4123,0 3.4123,0 0,3.4123 0,3.4123 -3.4123,0 -3.4123,0 0,-3.4123 z m -13.64919,-2.27487 0,-1.13743 -1.13744,0 -1.13743,0 0,-1.13743 0,-1.13744 1.13743,0 1.13744,0 0,-1.13743 0,-1.13743 1.13743,0 1.13743,0 0,1.13743 0,1.13743 1.13744,0 1.13743,0 0,-1.13743 0,-1.13743 1.13743,0 1.13744,0 0,1.13743 0,1.13743 -1.13744,0 -1.13743,0 0,1.13744 0,1.13743 -1.13743,0 -1.13744,0 0,1.13743 0,1.13743 -1.13743,0 -1.13743,0 0,-1.13743 z m 2.27486,-2.27486 0,-1.13744 -1.13743,0 -1.13743,0 0,1.13744 0,1.13743 1.13743,0 1.13743,0 0,-1.13743 z"
         id="path3127"
         inkscape:connector-curvature="0" />
    </g>
    <rect
       style="fill:#33b5e5;fill-opacity:1;stroke:none"
       id="rect4270-5"
       width="3.4415064"
       height="96.236687"
       x="86.90123"
       y="87.028732" />
    <path
       transform="matrix(1,0,0,-1,-272.00623,668.05277)"
       sodipodi:open="true"
       sodipodi:end="7.8539816"
       sodipodi:start="3.1415927"
       d="m 442.5,519.5 c 0,-19.88225 16.11775,-36 36,-36 19.88225,0 36,16.11775 36,36 0,19.88225 -16.11775,36 -36,36"
       sodipodi:ry="36"
       sodipodi:rx="36"
       sodipodi:cy="519.5"
       sodipodi:cx="478.5"
       id="path4464"
       style="fill:none;stroke:#808080;stroke-width:2;stroke-miterlimit:4;stroke-opacity:1;stroke-dasharray:none"
       sodipodi:type="arc" />
  </g>
</svg>
