<?xml version="1.0" encoding="UTF-8" standalone="no"?>
<!-- Created with Inkscape (http://www.inkscape.org/) -->

<svg
   xmlns:dc="http://purl.org/dc/elements/1.1/"
   xmlns:cc="http://creativecommons.org/ns#"
   xmlns:rdf="http://www.w3.org/1999/02/22-rdf-syntax-ns#"
   xmlns:svg="http://www.w3.org/2000/svg"
   xmlns="http://www.w3.org/2000/svg"
   xmlns:sodipodi="http://sodipodi.sourceforge.net/DTD/sodipodi-0.dtd"
   xmlns:inkscape="http://www.inkscape.org/namespaces/inkscape"
   width="64.456627"
   height="46.239147"
   id="svg3153"
   version="1.1"
   inkscape:version="0.48.2 r9819"
   sodipodi:docname="Nouveau document 3">
  <defs
     id="defs3155" />
  <sodipodi:namedview
     id="base"
     pagecolor="#ffffff"
     bordercolor="#666666"
     borderopacity="1.0"
     inkscape:pageopacity="0.0"
     inkscape:pageshadow="2"
     inkscape:zoom="0.35"
     inkscape:cx="372.9426"
     inkscape:cy="-482.59471"
     inkscape:document-units="px"
     inkscape:current-layer="layer1"
     showgrid="false"
     fit-margin-left="0"
     fit-margin-top="0"
     fit-margin-right="0"
     fit-margin-bottom="0"
     inkscape:window-width="1440"
     inkscape:window-height="838"
     inkscape:window-x="-8"
     inkscape:window-y="-8"
     inkscape:window-maximized="1" />
  <metadata
     id="metadata3158">
    <rdf:RDF>
      <cc:Work
         rdf:about="">
        <dc:format>image/svg+xml</dc:format>
        <dc:type
           rdf:resource="http://purl.org/dc/dcmitype/StillImage" />
        <dc:title></dc:title>
      </cc:Work>
    </rdf:RDF>
  </metadata>
  <g
     inkscape:label="Calque 1"
     inkscape:groupmode="layer"
     id="layer1"
     transform="translate(-2.0574,-3.52832)">
    <g
       id="g4061"
       transform="translate(-251.56141,-349.62847)">
      <path
         inkscape:connector-curvature="0"
         id="rect4513"
         d="m 289.93417,353.15679 c 2.89081,10.86521 1.60808,13.99023 1.60808,13.99023 0,0 -7.87955,-5.38704 -7.95995,4.02019 -0.0804,9.40722 2.3317,9.32681 3.61815,9.48762 1.28645,0.1608 4.66341,-2.41211 4.66341,-2.41211 0,0 2.0765,7.86747 2.0101,12.30175 l 21.70897,0 c 1.38085,0 2.49251,-1.11166 2.49251,-2.4925 l 0,-32.40267 c 0,-1.38084 -1.11166,-2.49251 -2.49251,-2.49251 l -25.64876,0 z"
         style="fill:#8fddfa;fill-opacity:1;fill-rule:evenodd;stroke:none" />
      <path
         inkscape:connector-curvature="0"
         id="rect3281"
         d="m 256.41282,353.16362 c -1.53775,0 -2.79401,1.25626 -2.79401,2.79401 l 0,31.80245 c 0,1.53775 1.25626,2.79401 2.79401,2.79401 l 25.84462,0 c 0.0308,-4.47508 -2.01334,-12.24435 -2.01334,-12.24435 0,0 -3.39133,2.58581 -4.68407,2.42422 -1.29276,-0.16159 -3.69664,-0.0793 -3.61578,-9.53252 0.0808,-9.45327 7.97115,-4.06776 7.97115,-4.06776 0,0 1.27329,-3.12025 -1.60244,-13.97006 l -21.90014,0 z"
         style="fill:#d4f2fd;fill-opacity:1;fill-rule:evenodd;stroke:none" />
      <path
         sodipodi:nodetypes="ccsc"
         inkscape:connector-curvature="0"
         id="path4059"
         d="m 262.33066,387.7367 c 0,0 1.22213,6.51804 -3.87009,11.61026 -0.40737,0.40738 12.62871,-1.62951 15.48035,-9.77706 2.85164,-8.14755 -11.61026,-1.8332 -11.61026,-1.8332 z"
         style="fill:#d4f2fd;fill-opacity:1;stroke:none" />
    </g>
  </g>
</svg>
